<svg xmlns="http://www.w3.org/2000/svg" width="500" height="500" viewBox="0 0 500 500" version="1.1"><path d="M 35 250.500 L 35 464 248.500 464 L 462 464 462 250.500 L 462 37 248.500 37 L 35 37 35 250.500 M 213.614 97.523 C 204.483 99.749, 198.974 101.615, 197.528 102.973 C 196.319 104.109, 193.002 109.253, 190.157 114.404 C 187.311 119.555, 184.324 124.316, 183.518 124.985 C 182.712 125.654, 178.789 127.406, 174.799 128.879 C 165.576 132.283, 163.795 134.783, 166.017 141.210 C 167.196 144.619, 168.681 146.285, 173.250 149.325 C 177.525 152.168, 179 153.751, 179 155.492 C 179 156.780, 176.271 166.534, 172.935 177.167 C 169.599 187.800, 166.611 198.645, 166.294 201.267 C 165.977 203.888, 166.281 212.888, 166.969 221.267 L 168.220 236.500 164.634 251.500 C 157.180 282.674, 154.985 301.528, 154.960 334.613 C 154.938 362.962, 156.245 376.530, 159.315 379.820 C 166.310 387.315, 229.912 425, 235.568 425 C 238.271 425, 242.600 421.298, 245.889 416.174 C 249.493 410.557, 249.702 408.454, 247 405 C 244.043 401.220, 244.546 399.347, 249.250 396.621 C 255.539 392.976, 262.882 391.328, 278.500 390.058 C 286.200 389.431, 299.025 388.075, 307 387.043 L 321.500 385.167 327.500 389.024 C 330.800 391.146, 334.842 393.387, 336.481 394.004 C 340.104 395.368, 359.195 395.396, 363.873 394.044 C 376.686 390.341, 374.417 384.266, 356.997 375.639 C 345.046 369.720, 346.064 371.233, 339.458 349.555 L 335.819 337.609 325.659 327.510 C 320.072 321.956, 308.907 312.147, 300.849 305.714 C 291.636 298.357, 285.049 292.279, 283.099 289.336 C 279.289 283.583, 279.265 283, 282.843 283 C 287.512 283, 296.335 279.484, 310.659 271.916 L 324.183 264.771 331.842 268.278 C 342.056 272.957, 343.731 273.269, 346.074 270.926 C 348.342 268.658, 348.499 264.752, 346.640 256.853 C 344.173 246.375, 338.191 238.769, 329.315 234.824 C 325.608 233.177, 324.121 233.079, 316.315 233.974 C 311.467 234.529, 304.754 234.987, 301.398 234.992 C 293.909 235.002, 289.908 232.638, 285.590 225.655 C 283.018 221.494, 282.763 220.467, 283.692 218.004 C 286.089 211.655, 295.092 199.885, 305.536 189.445 C 311.619 183.365, 317.219 176.840, 317.980 174.945 C 318.742 173.050, 320.183 170.427, 321.183 169.115 C 324.374 164.927, 322.996 157, 319.077 157 C 315.102 157, 299.059 162.307, 290.500 166.453 C 285.550 168.851, 277.003 173.761, 271.507 177.363 C 266.011 180.966, 261.179 183.579, 260.771 183.171 C 259.995 182.395, 256 157.485, 256 153.418 C 256 149.431, 259.981 140.183, 264.709 133.185 L 269.226 126.500 268.693 115.500 C 268.401 109.450, 267.870 103.760, 267.514 102.856 C 266.979 101.496, 264.901 101.149, 255.508 100.851 C 244.573 100.504, 243.978 100.370, 239.546 97.245 C 233.724 93.142, 231.495 93.165, 213.614 97.523 M 222.250 109.989 C 219.105 111.907, 217.671 116, 220.145 116 C 222.080 116, 229.996 110.577, 229.998 109.250 C 230.001 107.366, 225.913 107.755, 222.250 109.989 M 262.506 127.549 C 258.971 129.691, 257.751 129.898, 251.896 129.354 C 247.741 128.968, 245.041 129.125, 244.638 129.776 C 244.252 130.402, 244.731 130.621, 245.847 130.330 C 246.864 130.064, 249.394 130.556, 251.470 131.423 C 257.042 133.751, 260.509 133.410, 264.127 130.178 C 268.546 126.229, 267.496 124.527, 262.506 127.549 M 174.500 138.377 C 170.733 139.529, 170.646 139.640, 173 140.286 C 176.655 141.290, 179.573 141.152, 182.453 139.839 C 188.404 137.128, 182.272 136, 174.500 138.377 M 270.965 229.525 C 269.100 230.902, 263.733 235.517, 259.037 239.781 C 254.342 244.045, 248.025 249.523, 245 251.954 C 237.231 258.196, 237.013 258.464, 241.560 256.187 C 246.260 253.832, 260.956 243.205, 265.838 238.629 C 270.065 234.668, 275.380 228.046, 274.799 227.466 C 274.556 227.222, 272.831 228.149, 270.965 229.525 M 270.309 244.500 C 270.502 249.775, 271.734 256.517, 273.926 264.291 C 275.755 270.777, 277.402 275.932, 277.586 275.747 C 278.316 275.018, 273.095 244.253, 271.605 240.500 L 270.017 236.500 270.309 244.500 M 290.512 326.250 C 290.278 326.938, 288.237 334.025, 285.976 342 C 281.562 357.572, 276.372 369.494, 270.521 377.500 L 266.867 382.500 272.019 377 C 277.892 370.731, 286.975 353.215, 289.391 343.500 C 291.174 336.330, 292.526 325, 291.598 325 C 291.234 325, 290.746 325.563, 290.512 326.250 M 168 341.227 C 165.724 342.228, 166.048 342.395, 171.612 343.088 C 183.024 344.508, 189.739 347.012, 198.820 353.233 C 204.981 357.453, 204.935 356.121, 198.744 351.041 C 187.741 342.012, 175.267 338.030, 168 341.227" stroke="none" fill="#fcfbfb" fill-rule="evenodd"/><path d="M 0 250.002 L 0 500.004 250.250 499.752 L 500.500 499.500 500.752 249.750 L 501.004 0 250.502 0 L 0 0 0 250.002 M 0.492 250.500 C 0.492 388, 0.608 444.101, 0.750 375.170 C 0.892 306.238, 0.892 193.738, 0.750 125.170 C 0.608 56.601, 0.492 113, 0.492 250.500 M 35 250.500 L 35 464 248.500 464 L 462 464 462 250.500 L 462 37 248.500 37 L 35 37 35 250.500 M 213.614 97.523 C 204.483 99.749, 198.974 101.615, 197.528 102.973 C 196.319 104.109, 193.002 109.253, 190.157 114.404 C 187.311 119.555, 184.324 124.316, 183.518 124.985 C 182.712 125.654, 178.789 127.406, 174.799 128.879 C 165.576 132.283, 163.795 134.783, 166.017 141.210 C 167.196 144.619, 168.681 146.285, 173.250 149.325 C 177.525 152.168, 179 153.751, 179 155.492 C 179 156.780, 176.271 166.534, 172.935 177.167 C 169.599 187.800, 166.611 198.645, 166.294 201.267 C 165.977 203.888, 166.281 212.888, 166.969 221.267 L 168.220 236.500 164.634 251.500 C 157.180 282.674, 154.985 301.528, 154.960 334.613 C 154.938 362.962, 156.245 376.530, 159.315 379.820 C 166.310 387.315, 229.912 425, 235.568 425 C 238.271 425, 242.600 421.298, 245.889 416.174 C 249.493 410.557, 249.702 408.454, 247 405 C 244.043 401.220, 244.546 399.347, 249.250 396.621 C 255.539 392.976, 262.882 391.328, 278.500 390.058 C 286.200 389.431, 299.025 388.075, 307 387.043 L 321.500 385.167 327.500 389.024 C 330.800 391.146, 334.842 393.387, 336.481 394.004 C 340.104 395.368, 359.195 395.396, 363.873 394.044 C 376.686 390.341, 374.417 384.266, 356.997 375.639 C 345.046 369.720, 346.064 371.233, 339.458 349.555 L 335.819 337.609 325.659 327.510 C 320.072 321.956, 308.907 312.147, 300.849 305.714 C 291.636 298.357, 285.049 292.279, 283.099 289.336 C 279.289 283.583, 279.265 283, 282.843 283 C 287.512 283, 296.335 279.484, 310.659 271.916 L 324.183 264.771 331.842 268.278 C 342.056 272.957, 343.731 273.269, 346.074 270.926 C 348.342 268.658, 348.499 264.752, 346.640 256.853 C 344.173 246.375, 338.191 238.769, 329.315 234.824 C 325.608 233.177, 324.121 233.079, 316.315 233.974 C 311.467 234.529, 304.754 234.987, 301.398 234.992 C 293.909 235.002, 289.908 232.638, 285.590 225.655 C 283.018 221.494, 282.763 220.467, 283.692 218.004 C 286.089 211.655, 295.092 199.885, 305.536 189.445 C 311.619 183.365, 317.219 176.840, 317.980 174.945 C 318.742 173.050, 320.183 170.427, 321.183 169.115 C 324.374 164.927, 322.996 157, 319.077 157 C 315.102 157, 299.059 162.307, 290.500 166.453 C 285.550 168.851, 277.003 173.761, 271.507 177.363 C 266.011 180.966, 261.179 183.579, 260.771 183.171 C 259.995 182.395, 256 157.485, 256 153.418 C 256 149.431, 259.981 140.183, 264.709 133.185 L 269.226 126.500 268.693 115.500 C 268.401 109.450, 267.870 103.760, 267.514 102.856 C 266.979 101.496, 264.901 101.149, 255.508 100.851 C 244.573 100.504, 243.978 100.370, 239.546 97.245 C 233.724 93.142, 231.495 93.165, 213.614 97.523 M 222.250 109.989 C 219.105 111.907, 217.671 116, 220.145 116 C 222.080 116, 229.996 110.577, 229.998 109.250 C 230.001 107.366, 225.913 107.755, 222.250 109.989 M 262.506 127.549 C 258.971 129.691, 257.751 129.898, 251.896 129.354 C 247.741 128.968, 245.041 129.125, 244.638 129.776 C 244.252 130.402, 244.731 130.621, 245.847 130.330 C 246.864 130.064, 249.394 130.556, 251.470 131.423 C 257.042 133.751, 260.509 133.410, 264.127 130.178 C 268.546 126.229, 267.496 124.527, 262.506 127.549 M 174.500 138.377 C 170.733 139.529, 170.646 139.640, 173 140.286 C 176.655 141.290, 179.573 141.152, 182.453 139.839 C 188.404 137.128, 182.272 136, 174.500 138.377 M 270.965 229.525 C 269.100 230.902, 263.733 235.517, 259.037 239.781 C 254.342 244.045, 248.025 249.523, 245 251.954 C 237.231 258.196, 237.013 258.464, 241.560 256.187 C 246.260 253.832, 260.956 243.205, 265.838 238.629 C 270.065 234.668, 275.380 228.046, 274.799 227.466 C 274.556 227.222, 272.831 228.149, 270.965 229.525 M 270.309 244.500 C 270.502 249.775, 271.734 256.517, 273.926 264.291 C 275.755 270.777, 277.402 275.932, 277.586 275.747 C 278.316 275.018, 273.095 244.253, 271.605 240.500 L 270.017 236.500 270.309 244.500 M 290.512 326.250 C 290.278 326.938, 288.237 334.025, 285.976 342 C 281.562 357.572, 276.372 369.494, 270.521 377.500 L 266.867 382.500 272.019 377 C 277.892 370.731, 286.975 353.215, 289.391 343.500 C 291.174 336.330, 292.526 325, 291.598 325 C 291.234 325, 290.746 325.563, 290.512 326.250 M 168 341.227 C 165.724 342.228, 166.048 342.395, 171.612 343.088 C 183.024 344.508, 189.739 347.012, 198.820 353.233 C 204.981 357.453, 204.935 356.121, 198.744 351.041 C 187.741 342.012, 175.267 338.030, 168 341.227" stroke="none" fill="#fb7d06" fill-rule="evenodd"/></svg>